<svg xmlns="http://www.w3.org/2000/svg" viewBox="0 0 12 29">
    <path d="M6 6V5H4v1h1v1H4V6H3v2h1v1h2V8h1V6z" fill="#f20030"/>
    <path d="M4 6h1v1H4zm4 2v2H7V8H6v1H4V8H3v1H1v2h1v1h1v1h5v-1h1v-2h1V8H8zm-3 4v-1H4v-1h1v1h2v1H5z" fill="#fafffe"/>
    <path d="M9 7h1v1H9zM3 9V8H1v1zm7-1v2h1V8zM1 9H0v2h1zm3 1h1v1H4zm5 0h1v1H9zm-8 1h1v1H1zm6 1v-1H5v1zm-5 0h1v1H2zm6 0h1v1H8zm-5 1v1h1v9h1v-9h2v9h1V13z" fill="#ff9ec8"/>
    <path d="M8 13v7h1v-7zm-3 1v9H4v2h1v2H4v1h3v-1H6v-2h1v-3H6v-7h1v-1zm-2 1h1v-1H3v-1H2v7h1zm0 7h1v1H3z" fill="#ff6daa"/>
    <path d="M10 0v1h2V0zM9 4h1V1H9zM8 8h1V4H8zm-1 2h1V8H7zm2 10h1v-9H9zm-7-8H1v8h1zm6 11h1v-3H8zm-4-1v-7H3v5H2v3h1v-1zm3-7H6v7h1zm-3 8H3v2h1zm3 2h1v-2H7zm-1 2h1v1H4v-1h1v-2H4v1H3v1H2v1h1v1h5v-1h1v-1H8v-1H7v-1H6z" fill="#ff2b87"/>
</svg>
