<svg xmlns="http://www.w3.org/2000/svg" viewBox="0 0 26 15">
    <path d="M7 10V9H6V0H4v1H3v1H2v1H1v2H0v6h1v2h1v1h1v1h2v-1h1v-1h1v-1h1v-2z" fill="#002de4"/>
    <g fill="#1973ff">
        <path d="M6 11H5v1H4v1H3v1h2v-1h1v-1h1v-1zM5 3V1H4v1H3v1H2v1h2V3zm0 3V4H4v1H1v2h3V6zm0 3V7H4v1H1v2h3V9zm-1 1h1v1H4z"/>
        <path d="M5 9h1v1H5zm-2 2H2v1h2v-1z"/>
    </g>
    <path d="M3 7h1V5H1v2h1zm1-3V2H3v1H2v1h1zm0 4H1v2h3V9zm0 2h1v1H4zm-2 1v1h2v-1H3z" fill="#9dc3ff"/>
    <path d="M19 10V9h1V0h2v1h1v1h1v1h1v2h1v6h-1v2h-1v1h-1v1h-2v-1h-1v-1h-1v-1h-1v-2z" fill="#002de4"/>
    <g fill="#1973ff">
        <path d="M20 11h1v1h1v1h1v1h-2v-1h-1v-1h-1v-1zm1-8V1h1v1h1v1h1v1h-2V3zm0 3V4h1v1h3v2h-3V6zm0 3V7h1v1h3v2h-3V9zm0 1h1v1h-1z"/>
        <path d="M20 9h1v1h-1zm3 2h1v1h-2v-1z"/>
    </g>
    <path d="M23 7h-1V5h3v2h-1zm-1-3V2h1v1h1v1h-1zm0 4h3v2h-3V9zm-1 2h1v1h-1zm3 1v1h-2v-1h1z" fill="#9dc3ff"/>
</svg>
