<svg xmlns="http://www.w3.org/2000/svg" viewBox="0 0 64 64" style="enable-background:new 0 0 64 64" xml:space="preserve">
    <path style="fill:none" d="M0 0h64v64H0z"/>
    <path d="M39 24v2h-1v-2h1v-1h-2v1h-1v3h1v1h2v-1h1v-3zm-12 1v1h-1v-2h1v-1h-2v1h-1v3h1v1h2v-1h1v-3h-1z" style="fill:#00a5ff"/>
    <path d="M35 23h1v1h-1zm0 3v-2h-1v4h1v-1zm0 2h1v1h-1zm5-5h1v1h-1zm1 1v4h1v-4zm-3-1h2v-1h-4v1h1zm0 6h-2v1h4v-1h-1zm2-1h1v1h-1zm-17-5h1v1h-1zm0 3v-2h-1v4h1v-1zm0 2h1v1h-1zm5-5h1v1h-1zm1 2v3h1v-4h-1zm-3-2h2v-1h-4v1h1zm0 6h-2v1h4v-1h-1zm2-1h1v1h-1z" style="fill:#0000b9"/>
</svg>
