<svg xmlns="http://www.w3.org/2000/svg" viewBox="0 0 32 9">
    <path d="M31 4V2h-1V1h-2V0h-7v1h-1v1h-1v1h-1v2h10v1h1v1h1v1h1v1h1V4h-1z" fill="#bdbba6"/>
    <path d="M29 4h1v1h-1zm1 1h1v1h-1zm-3-3h1v1h-1zm1 1h1v1h-1zm-3 0h1v1h-1zm-1-1h1v1h-1zm-2 1h1v1h-1zm-1-1h1v1h-1zm5-1h1v1h-1zm-3 0h1v1h-1z" fill="#eeecdf"/>
    <path d="M13 2h-1V1h-1V0H4v1H2v1H1v2H0v5h1V8h1V7h1V6h1V5h10V3h-1V2z" fill="#bdbba6"/>
    <path d="M2 4h1v1H2zM1 5h1v1H1zm3-3h1v1H4zM3 3h1v1H3zm3 0h1v1H6zm1-1h1v1H7zm2 1h1v1H9zm1-1h1v1h-1zM5 1h1v1H5zm3 0h1v1H8z" fill="#eeecdf"/>
</svg>
