<svg xmlns="http://www.w3.org/2000/svg" viewBox="0 0 64 64">
    <path d="M0 0h64v64H0z" fill="none"/>
    <path d="M35 29h-6v2h8v-2z" fill="#5a5a5a"/>
    <path d="M35 31h-6v2h8v-2z" fill="#464646"/>
    <path d="M35 33h2v2h-2zm0 4h2v2h-2zm0 4h2v2h-2zm-2-6h2v2h-2zm0 4h2v2h-2zm-4-4h2v2h-2zm0 4h2v2h-2zm4 4h2v2h-2zm-4 0h2v2h-2zm2-10h2v2h-2zm0 4h2v2h-2zm0 4h2v2h-2z" fill="#323232"/>
    <path d="M35 35h2v2h-2zm0 4h2v2h-2zm-2-6h2v2h-2zm0 4h2v2h-2zm-4-4h2v2h-2zm0 4h2v2h-2zm4 4h2v2h-2zm-4 0h2v2h-2zm6 2h2v2h-2zm-4-8h2v2h-2zm0 4h2v2h-2zm0 4h2v2h-2z" fill="#1e1e1e"/>
    <path d="M35 27h-6v2h8v-2z" fill="#6e6e6e"/>
    <path d="M37 25v-8h-2v8h-8v4h-2v4h2v14h12V25h-2zm0 4v16h-8V27h8v2z"/>
</svg>
