<svg xmlns="http://www.w3.org/2000/svg" viewBox="0 0 43 22">
    <path d="M23 6h2V4h-2v2zm4 0h2V4h-2v2zm-8 0h2V4h-2v2zm-2 0V4h-2v2h2zm10-2V2h-2v2h2zm-8 0V2h-2v2h2zm4 0V2h-2v2h2zM13 4h-2v2h2V4zm8 4h2V6h-2v2zm4 0h2V6h-2v2zm4 0h2V6h-2v2zM17 8h2V6h-2v2zm-2 0V6h-2v2h2zm8 2h2V8h-2v2zm4 0h2V8h-2v2zm4 0h2V8h-2v2zm-12 0h2V8h-2v2zm-2 0V8h-2v2h2zm8 2h2v-2h-2v2zm4 0h2v-2h-2v2zm4 0h2v-2h-2v2zm-12 0h2v-2h-2v2zm-2 0v-2h-2v2h2zm8 2h2v-2h-2v2zm4 0h2v-2h-2v2zm4 0h2v-2h-2v2zm-12 0h2v-2h-2v2zm-2 0v-2h-2v2h2zm8 2h2v-2h-2v2zm4 0h2v-2h-2v2zm4 0h2v-2h-2v2zm-12 0h2v-2h-2v2zm-2 0v-2h-2v2h2zm-8-2h2v-2h-2v2zm2 2h2v-2h-2v2zm-2 0v-2h-2v2h2zm-4 0v-2H9v2h2zm18 4h2v-2h-2v2zm4 0h2v-2h-2v2zm4 0h2v-2h-2v2zm-12 0h2v-2h-2v2zm-2 0v-2h-2v2h2zm-6 0h2v-2h-2v2zm-2 0v-2h-2v2h2zm-4 0v-2H9v2h2zm0-14H9v2h2V6z" fill="#00beff"/>
    <g fill="#0050aa">
        <path d="M7 20v-2H5v4h38v-4h-2v2H7zm32-10h-2v4h2v-4zm-2-2h-2v2h2V8zM11 6V4H9v2h2zm4-2V2h-4v2h4zm0-4v2h12V0H15zm12 4h4V2h-4v2zm4 2h2v2h2V6h-2V4h-2v2zM1 13H0v3h1v-3zm0 3v1h3v-1H1zm3 0h1v-3H4v3zm37 2v-4h-2v2H9v-2H7v4h34z"/>
        <path d="M13 14v-2h2v-2h-2V8H9V6H7v2H5v2H3v2H1v1h3v-1h3v-2h4v2H9v2h4z"/>
    </g>
    <path d="M23 18v2h2v-2h-2zm12 0v2h2v-2h-2zm-8 0v2h2v-2h-2zm4 0v2h2v-2h-2zm-20 0v2h2v-2h-2zm8 0v2h2v-2h-2zm-4 0v2h2v-2h-2zm24 0v2h2v-2h-2zM7 18v2h2v-2H7zm16-4v2h2v-2h-2zm12 2h2v-2h-2v2zm-8-2v2h2v-2h-2zm4 0v2h2v-2h-2zm-20 0v2h2v-2h-2zm8 0v2h2v-2h-2zm-4 0v2h2v-2h-2zm6-2v2h2v-2h-2zm12 2h2v-2h-2v2zm-8-2v2h2v-2h-2zm4 0v2h2v-2h-2zm-12 0v2h2v-2h-2zm-4 0v2h2v-2h-2zm10-2v2h2v-2h-2zm12 2h2v-2h-2v2zm-8-2v2h2v-2h-2zm4 0v2h2v-2h-2zm-12 0v2h2v-2h-2zm-4 0v2h2v-2h-2zm6-2v2h2V8h-2zm12 2h2V8h-2v2zm-8-2v2h2V8h-2zm4 0v2h2V8h-2zM17 8v2h2V8h-2zm-4 0v2h2V8h-2zm6-2v2h2V6h-2zm12 2h2V6h-2v2zm-8-2v2h2V6h-2zm4 0v2h2V6h-2zM15 6v2h2V6h-2zm2-2v2h2V4h-2zm12 2h2V4h-2v2zm-8-2v2h2V4h-2zm4 0v2h2V4h-2zM15 2v2h2V2h-2zm4 0v2h2V2h-2zm4 0v2h2V2h-2zM13 4v2h2V4h-2zm-2 2v2h2V6h-2z" fill="#00a0e6"/>
    <path d="M1 13v3h3v-3H1z" fill="#fff"/>
</svg>
