<svg xmlns="http://www.w3.org/2000/svg" viewBox="0 0 42 24">
    <path d="M24 20h5v1h-5v-1z" fill="#fff"/>
    <path d="M18 17h1v1h-1v-1zm0-2h1v1h-1v-1zm0-4h1v1h-1v-1zm0 2h1v1h-1v-1zm0 6h1v1h-1v-1zm-6-2h1v1h-1v-1zm11-1h1v1h-1v-1zm-1 1h1v1h-1v-1zM9 16h1v1H9v-1zm-1 1h1v1H8v-1zm-3-1h1v1H5v-1zm1-1h1v1H6v-1zm1-1h1v1H7v-1zm1-1h1v1H8v-1zm1-1h1v1H9v-1zm1-1h1v1h-1v-1zm1-1h1v1h-1v-1zm1-1h1v1h-1V9zm1-1h1v1h-1V8zm-3 1h1v1h-1V9zm1-1h1v1h-1V8zM8 9h1v1H8V9zm1-1h1v1H9V8zM6 9h1v1H6V9zm1-1h1v1H7V8zM4 9h1v1H4V9zm1-1h1v1H5V8zM4 7h1v1H4V7zm1-1h1v1H5V6zm0 4h1v1H5v-1zm1 1h1v1H6v-1zm1-1h1v1H7v-1zm-2 4h1v1H5v-1zm0-2h1v1H5v-1zm1 1h1v1H6v-1zm1-1h1v1H7v-1zm1-1h1v1H8v-1zm1-1h1v1H9v-1zm5-1h1v1h-1V9zm2 0h1v1h-1V9zm10 0h1v1h-1V9zm1-1h1v1h-1V8zm1 1h1v1h-1V9zm1-1h1v1h-1V8zm1 1h1v1h-1V9zm1-1h1v1h-1V8zm1 1h1v1h-1V9zm1-1h1v1h-1V8zm1 1h1v1h-1V9zm1-1h1v1h-1V8zM12 7h1v1h-1V7zm-2 0h1v1h-1V7zM8 7h1v1H8V7zm1-1h1v1H9V6zM6 7h1v1H6V7zm1-1h1v1H7V6zm23 1h1v1h-1V7zm1-1h1v1h-1V6zm1 1h1v1h-1V7zm1-1h1v1h-1V6zm1 1h1v1h-1V7zm1-1h1v1h-1V6zm-1-1h1v1h-1V5zm2 4h1v1h-1V9zm1-1h1v1h-1V8zm-1-1h1v1h-1V7zm1-1h1v1h-1V6zm-1-1h1v1h-1V5zm1-1h1v1h-1V4zm-2 0h1v1h-1V4zM4 5h1v1H4V5zm1-1h1v1H5V4zM4 3h1v1H4V3zm2 2h1v1H6V5zm2 0h1v1H8V5zM6 17h1v1H6v-1zm1-1h1v1H7v-1zm1-1h1v1H8v-1zm1-1h1v1H9v-1zm1 1h1v1h-1v-1zm1-1h1v1h-1v-1zm1-1h1v1h-1v-1zm1-1h1v1h-1v-1zm-3 1h1v1h-1v-1zm1-1h1v1h-1v-1zm3 1h1v1h-1v-1zm1-1h1v1h-1v-1zm1-1h1v1h-1v-1zm1-1h1v1h-1v-1zm-3 1h1v1h-1v-1zm1-1h1v1h-1v-1zm-3 1h1v1h-1v-1zm1-1h1v1h-1v-1zm9 1h1v1h-1v-1zm1-1h1v1h-1v-1zm1 1h1v1h-1v-1zm1-1h1v1h-1v-1zm1 1h1v1h-1v-1zm1-1h1v1h-1v-1zm1 1h1v1h-1v-1zm1-1h1v1h-1v-1zm-3 3h1v1h-1v-1zm1-1h1v1h-1v-1zm3 3h1v1h-1v-1zm1-1h1v1h-1v-1zm3 3h1v1h-1v-1zm1-1h1v1h-1v-1zm1 1h1v1h-1v-1zm-2-2h1v1h-1v-1zm1-1h1v1h-1v-1zm-3-1h1v1h-1v-1zm1-1h1v1h-1v-1zm-3-1h1v1h-1v-1zm1-1h1v1h-1v-1zm1 1h1v1h-1v-1zm1-1h1v1h-1v-1zm1 1h1v1h-1v-1zm1-1h1v1h-1v-1zm1 1h1v1h-1v-1zm-2 2h1v1h-1v-1zm1-1h1v1h-1v-1zm1 1h1v1h-1v-1zm0 2h1v1h-1v-1zm-4 0h1v1h-1v-1zm1-1h1v1h-1v-1zm-5-1h1v1h-1v-1zm1-1h1v1h-1v-1zm1 1h1v1h-1v-1zm1-1h1v1h-1v-1zm-20 4h1v1h-1v-1zm4-2h1v1h-1v-1zm-2 0h1v1h-1v-1zm-3 3h1v1h-1v-1zm7-5h1v1h-1v-1zm-1 1h1v1h-1v-1zm-4 2h1v1h-1v-1zm21 1h1v1h-1v-1zm-1 1h1v1h-1v-1zm-1-1h1v1h-1v-1zm-6-4h1v1h-1v-1zm-2 0h1v1h-1v-1zm6 2h1v1h-1v-1zm1 3h1v1h-1v-1zm-6-4h1v1h-1v-1zm-2 0h1v1h-1v-1zm5 1h1v1h-1v-1zm-10 0h1v1h-1v-1zm8 0h1v1h-1v-1zm-2 0h1v1h-1v-1zm6 2h1v1h-1v-1zm-17 3h1v1h-1v-1zm11-1h1v1h-1v-1zm-1 1h1v1h-1v-1zM9 18h1v1H9v-1zm-1 1h1v1H8v-1zm-3-1h1v1H5v-1zm1 1h1v1H6v-1zm1-1h1v1H7v-1zm27 1h1v1h-1v-1zm1-1h1v1h-1v-1zm1 1h1v1h-1v-1zm-1 1h1v1h-1v-1zm1 1h1v1h-1v-1zm-5-1h1v1h-1v-1zm-2 0h1v1h-1v-1zm4 0h1v1h-1v-1zm2 2h1v1h-1v-1zm-15-7h1v1h-1v-1zm0 2h1v1h-1v-1zm0-6h1v1h-1v-1zm0 2h1v1h-1v-1zm0 6h1v1h-1v-1zm1-9h1v1h-1v-1zm0 10h1v1h-1v-1zm2 0h1v1h-1v-1zM5 22h1v1H5v-1zm6-4h1v1h-1v-1zm-1 1h1v1h-1v-1zm23-1h1v1h-1v-1zm-1 1h1v1h-1v-1zm-1-1h1v1h-1v-1zm-1 1h1v1h-1v-1zM9 20h1v1H9v-1zm2 0h1v1h-1v-1zm-6 0h1v1H5v-1zm1 1h1v1H6v-1zm1-1h1v1H7v-1zm22-2h1v1h-1v-1zm-7-3h1v1h-1v-1zm12 6h1v1h-1v-1z" fill="#00a0e6"/>
    <path d="M18 16h1v1h-1v-1zm0-6h1v1h-1v-1zm0 2h1v1h-1v-1zm0 2h1v1h-1v-1zm0 4h1v1h-1v-1zm2-2h1v1h-1v-1zm0-4h1v1h-1v-1zm0 2h1v1h-1v-1zm0 4h1v1h-1v-1zm-2 2h1v1h-1v-1zm5-3h1v1h-1v-1zm-1-1h1v1h-1v-1zM8 16h1v1H8v-1zm1 1h1v1H9v-1zm-4 0h1v1H5v-1zm2-2h1v1H7v-1zm-1-1h1v1H6v-1zm3-1h1v1H9v-1zm-1-1h1v1H8v-1zm3-1h1v1h-1v-1zm-1-1h1v1h-1v-1zm3-1h1v1h-1V9zm-1-1h1v1h-1V8zm-1 1h1v1h-1V9zm-1-1h1v1h-1V8zM9 9h1v1H9V9zM8 8h1v1H8V8zM7 9h1v1H7V9zM6 8h1v1H6V8zM5 9h1v1H5V9zM4 8h1v1H4V8zm1-1h1v1H5V7zM4 6h1v1H4V6zm1 5h1v1H5v-1zm2 0h1v1H7v-1zm-1-1h1v1H6v-1zm-1 3h1v1H5v-1zm0 2h1v1H5v-1zm2-2h1v1H7v-1zm-1-1h1v1H6v-1zm3-1h1v1H9v-1zm-1-1h1v1H8v-1zm7-1h1v1h-1V9zm-1-1h1v1h-1V8zm11 1h1v1h-1V9zm2 0h1v1h-1V9zm2 0h1v1h-1V9zm-1-1h1v1h-1V8zm3 1h1v1h-1V9zm-1-1h1v1h-1V8zm3 1h1v1h-1V9zm-1-1h1v1h-1V8zm3 1h1v1h-1V9zm-1-1h1v1h-1V8zM11 7h1v1h-1V7zm-1-1h1v1h-1V6zM9 7h1v1H9V7zM8 6h1v1H8V6zM7 7h1v1H7V7zM6 6h1v1H6V6zm23 1h1v1h-1V7zm2 0h1v1h-1V7zm2 0h1v1h-1V7zm-1-1h1v1h-1V6zm3 1h1v1h-1V7zm-1-1h1v1h-1V6zm-1-1h1v1h-1V5zm2 0h1v1h-1V5zm2 4h1v1h-1V9zm-1-1h1v1h-1V8zm1-1h1v1h-1V7zm-1-1h1v1h-1V6zm1-1h1v1h-1V5zm-1-1h1v1h-1V4zm1-1h1v1h-1V3zM5 5h1v1H5V5zM4 4h1v1H4V4zm3 1h1v1H7V5zM6 4h1v1H6V4zm1 13h1v1H7v-1zm-1-1h1v1H6v-1zm3-1h1v1H9v-1zm-1-1h1v1H8v-1zm3 1h1v1h-1v-1zm-1-1h1v1h-1v-1zm3-1h1v1h-1v-1zm-1-1h1v1h-1v-1zm-1 1h1v1h-1v-1zm-1-1h1v1h-1v-1zm5 1h1v1h-1v-1zm-1-1h1v1h-1v-1zm3-1h1v1h-1v-1zm-1-1h1v1h-1v-1zm-1 1h1v1h-1v-1zm-1-1h1v1h-1v-1zm-1 1h1v1h-1v-1zm-1-1h1v1h-1v-1zm11 1h1v1h-1v-1zm-1-1h1v1h-1v-1zm3 1h1v1h-1v-1zm-1-1h1v1h-1v-1zm3 1h1v1h-1v-1zm-1-1h1v1h-1v-1zm3 1h1v1h-1v-1zm-1-1h1v1h-1v-1zm-1 3h1v1h-1v-1zm-1-1h1v1h-1v-1zm5 3h1v1h-1v-1zm-1-1h1v1h-1v-1zm5 3h1v1h-1v-1zm-1-1h1v1h-1v-1zm2 0h1v1h-1v-1zm-1-1h1v1h-1v-1zm-1-1h1v1h-1v-1zm-1-1h1v1h-1v-1zm-1-1h1v1h-1v-1zm-1-1h1v1h-1v-1zm-1-1h1v1h-1v-1zm3 1h1v1h-1v-1zm-1-1h1v1h-1v-1zm3 1h1v1h-1v-1zm-1-1h1v1h-1v-1zm2 0h1v1h-1v-1zm-1 3h1v1h-1v-1zm-1-1h1v1h-1v-1zm2 0h1v1h-1v-1zm0 2h1v1h-1v-1zm-3 1h1v1h-1v-1zm-1-1h1v1h-1v-1zm-3-1h1v1h-1v-1zm-1-1h1v1h-1v-1zm3 1h1v1h-1v-1zm-1-1h1v1h-1v-1zm-20 4h1v1h-1v-1zm1 1h1v1h-1v-1zm6-4h1v1h-1v-1zm-1-1h1v1h-1v-1zm-2 2h1v1h-1v-1zm-2 0h1v1h-1v-1zm20 2h1v1h-1v-1zm1 1h1v1h-1v-1zm-3-1h1v1h-1v-1zm-5-3h1v1h-1v-1zm-2 0h1v1h-1v-1zm6 2h1v1h-1v-1zm2 2h1v1h-1v-1zm-7-5h1v1h-1v-1zm-2 0h1v1h-1v-1zm4 2h1v1h-1v-1zm2 0h1v1h-1v-1zm-16 2h1v1h-1v-1zm4-2h1v1h-1v-1zm7 1h1v1h-1v-1zm6 2h1v1h-1v-1zm-6 2h1v1h-1v-1zm-1-1h1v1h-1v-1zM8 18h1v1H8v-1zm1 1h1v1H9v-1zm-4 0h1v1H5v-1zm2 0h1v1H7v-1zm-1-1h1v1H6v-1zm29 1h1v1h-1v-1zm-1-1h1v1h-1v-1zm2 0h1v1h-1v-1zm-1 3h1v1h-1v-1zm-1-1h1v1h-1v-1zm2 0h1v1h-1v-1zm-6 0h1v1h-1v-1zm2 0h1v1h-1v-1zm4 2h1v1h-1v-1zm-16-2h1v1h-1v-1zm1-5h1v1h-1v-1zm0 2h1v1h-1v-1zm0-6h1v1h-1v-1zm0 2h1v1h-1v-1zm0 6h1v1h-1v-1zm1 1h1v1h-1v-1zM6 22h1v1H6v-1zm4-4h1v1h-1v-1zm1 1h1v1h-1v-1zm21-1h1v1h-1v-1zm1 1h1v1h-1v-1zm-3-1h1v1h-1v-1zm1 1h1v1h-1v-1zm-19-1h1v1h-1v-1zm-4 2h1v1H8v-1zm2 0h1v1h-1v-1zm2 0h1v1h-1v-1zm-6 0h1v1H6v-1zm-1 1h1v1H5v-1zm2 0h1v1H7v-1zm22-2h1v1h-1v-1zm-7-5h1v1h-1v-1zm2 0h1v1h-1v-1zm-4-4h1v1h-1v-1z" fill="#00beff"/>
    <path d="M24 19v1h5v-1h-5z" fill="#0050aa"/>
    <path d="M24 18h5v1h-5v-1z" fill="#fff"/>
    <path d="M24 17v1h5v-1h-5z" fill="#0050aa"/>
    <path d="M24 16h5v1h-5v-1z" fill="#fff"/>
    <path d="M24 15v1h5v-1h-5z" fill="#0050aa"/>
    <path d="M13 20h5v1h-5v-1z" fill="#fff"/>
    <path d="M13 19v1h5v-1h-5z" fill="#0050aa"/>
    <path d="M13 18h5v1h-5v-1z" fill="#fff"/>
    <path d="M13 17v1h5v-1h-5z" fill="#0050aa"/>
    <path d="M13 16h5v1h-5v-1z" fill="#fff"/>
    <g fill="#0050aa">
        <path d="M13 15v1h5v-1h-5zm4-6V8h-2v1h2zm10 0V8h-2v1h2zM15 8V7h-2v1h2zm-2-1V6h-2v1h2zm16 1V7h-2v1h2zm2-1V6h-2v1h2zm2-1V5h-2v1h2zm2-1V4h-2v1h2zm0-2h2v1h-2V3zM5 3h2v1H5V3zM4 2v1h1V2H4zm5 3V4H7v1h2zm2 1V5H9v1h2zm26 17h-2v-1h-1v2h4V10h-1v13z"/>
        <path d="M20 21V10h5V9h-8v1h2v11H8v1h5v2h5v-2h6v2h5v-2h5v-1H20z"/>
        <path d="M5 10H4v14h4v-2H7v1H5V10zm16 6h1v1h-1v-1zm0-4h1v1h-1v-1zm0 2h1v1h-1v-1zm0 4h1v1h-1v-1zM37 3h1V2h-1v1z"/>
    </g>
    <path d="M1 9h1v1H1V9zm1-5h1v1H2V4zm0 2h1v1H2V6zM1 5h1v1H1V5zm2 0h1v1H3V5zm0 2h1v1H3V7zM2 8h1v1H2V8zM1 7h1v1H1V7zm2-4h1v1H3V3z" fill="#00beff"/>
    <path d="M1 8h1v1H1V8zm1 1h1v1H2V9zm0-4h1v1H2V5zm1-1h1v1H3V4zm0 2h1v1H3V6zM2 7h1v1H2V7zM1 6h1v1H1V6zm2 2h1v1H3V8z" fill="#00a0e6"/>
    <path d="M4 2H3v1h1V2zM2 3h1v1H2V3zM1 4h1v1H1V4zM0 5v7h1v-1h2v-1H1V5H0zm3 4h1v1H3V9z" fill="#0050aa"/>
    <path d="M40 9h1v1h-1V9zm-1-5h1v1h-1V4zm0 2h1v1h-1V6zm1-1h1v1h-1V5zm-2 0h1v1h-1V5zm0 2h1v1h-1V7zm1 1h1v1h-1V8zm1-1h1v1h-1V7zm-2-4h1v1h-1V3z" fill="#00a0e6"/>
    <path d="M40 8h1v1h-1V8zm-1 1h1v1h-1V9zm0-4h1v1h-1V5zm-1-1h1v1h-1V4zm0 2h1v1h-1V6zm1 1h1v1h-1V7zm1-1h1v1h-1V6zm-2 2h1v1h-1V8z" fill="#00beff"/>
    <path d="M38 3h1V2h-1v1zm1 0h1v1h-1V3zm1 1h1v1h-1V4zm1 1v5h-2v1h2v1h1V5h-1zm-3 4h1v1h-1V9z" fill="#0050aa"/>
</svg>
