<svg xmlns="http://www.w3.org/2000/svg" viewBox="0 0 42 22">
    <path d="M4 18v2h34v-2H4zm32-2v-2h-4v-2h-2v-2h2V8h4V6h-2V4h-4V2H18v2h-4v2h-2v2h-2v2H8v4H6v2h30z"/>
    <path d="M20 16h1v1h-1v-1z" fill="#ffc88a"/>
    <path d="M20 17h1v1h-1v-1zm1-1h1v1h-1v-1z" fill="#ffaa4a"/>
    <path d="M21 17h1v1h-1v-1z" fill="#ff8700"/>
    <path d="M38 20H4v-2H2v2H0v2h42v-2h-2v-2h-2v2zM8 14v-4H6v4h2zm2-4V8H8v2h2zm26-6h-2v2h2V4zm-2-2h-4v2h4V2zM18 0v2h12V0H18zm-4 2v2h4V2h-4zm-2 2v2h-2v2h2V6h2V4h-2zm28 6V8h-2V6h-2v2h-4v2h-2v2h2v2h4v-2h-2v-2h4v2h2v2h2v-4h-2zm-20 8v-2H6v-2H4v4h16zm16-2H22v2h16v-4h-2v2z" fill="#191919"/>
    <path d="M18 10v2h1v1h1v1h1v-4h-3zm5-2V7h-1V6h-1v4h3V8h-1z" fill="#ffaa4a"/>
    <path d="M21 10v4h1v-1h1v-1h1v-2h-3z" fill="#ff8700"/>
    <path d="M20 6v1h-1v1h-1v2h3V6h-1z" fill="#ffc88a"/>
    <path d="M20 14v1h2v-1h-2zm2-1h1v1h-1v-1zm1-1h1v1h-1v-1zm-5 0h1v1h-1v-1zm1 1h1v1h-1v-1zm-1-5h-1v4h1V8zm6 0v4h1V8h-1zm-2-2h1v1h-1V6zm-4 1h1v1h-1V7zm1-1h1v1h-1V6zm4 1h1v1h-1V7zm-1-1V5h-2v1h2z" fill="#191919"/>
</svg>
