<svg xmlns="http://www.w3.org/2000/svg" viewBox="0 0 40 19">
    <path d="M4 18V7H3v12h9v-1zM3 0h4v1H3zm4 1h2v1H7zm2 1h3v1H9z" fill="#2d5016"/>
    <path d="M15 4h10v1H15zm-3 14h16v1H12zm0-15h3v1h-3zm13 0h3v1h-3z" fill="#d4aa00"/>
    <path d="M33 1v1h-2v1h-3v15h8V7h1V1z" fill="red"/>
    <path d="M36 18h-8v1h9V7h-1zM33 0h4v1h-4zm-5 2h3v1h-3zm3-1h2v1h-2z" fill="#a00"/>
    <g fill="#ff0">
        <path d="M21 9h1v1h-1zm-2 3h2v1h-2z"/>
        <path d="M21 11h1v1h-1zm-3 0h1v1h-1zm0-2h1v1h-1zm7-5v1H15V4h-3v14h16V4h-3zm-2 4v1h1v6h-1v-1h-1v1h-1v-1h-2v1h-1v-1h-1v1h-1V9h1V8h1V7h4v1h1z"/>
    </g>
    <path d="M23 9V8h-1V7h-4v1h-1v1h-1v6h1v-1h1v1h1v-1h2v1h1v-1h1v1h1V9h-1zm-1 1h-1V9h1v1zm-3-1v1h-1V9h1zm0 4v-1h-1v-1h1v1h2v-1h1v1h-1v1h-2zM9 3V2H7V1H3v6h1v11h8V3zM2 2v1H1v6h1V8h1V2z" fill="green"/>
    <path d="M1 3H0v7h2V9H1zm0-1h1v1H1zm1 6h1v1H2zm0-7h1v1H2z" fill="#2d5016"/>
    <path d="M38 3V2h-1v6h1v1h1V3z" fill="red"/>
    <path d="M37 8h1v1h-1zm2-5v6h-1v1h2V3zm-1-1h1v1h-1zm-1-1h1v1h-1z" fill="#a00"/>
</svg>
