<svg xmlns="http://www.w3.org/2000/svg" viewBox="0 0 34 45">
    <path d="M33 8h-1V6h-2V4h-4V2h-4V0H12v2H8v2H4v2H2v2H0v37h2V19h1v-1h2v-1h2v-1h2v-1h2v-1h1v-1h1v-1h1v1h1v1h2v1h2v1h2v1h2v1h2v1h2v1h2v1h2v1h1v23h2V8z" fill="#9300d7"/>
    <g fill="#ac27ff">
        <path d="M12 10h-1V8h-1V7H9V5H8v1H4v2H2v10h1v-1h2v-1h2v-1h2v-1h3v-2h1v-1h-1z"/>
        <path d="M31 8h-1V6h-4V4h-4V2H12v2H9v1h1v2h1v1h1v2h1v1h1v1h1v1h2v1h2v1h2v1h2v1h2v1h2v1h2v1h2v1h1V8z"/>
    </g>
    <path d="M11 5h-1v2h1V6zM8 5h1v1H8zm3-1h1v1h-1zM9 4h1v1H9zm5 0V3h-1v2h1zm1 1h1V3h-1v1zm3 0h1v1h-1zm-1 0h1V3h-1v1zm2 0h2V4h-1V3h-1v1zm3 1h1V5h-2v1zm3-1h1v1h-1zm0 0V4h-2v1h1zm-4-2h1v1h-1zm-8 4h1v1h-1zm-2 0h1v1h-1zm1 0h1V5h-1v1zM8 8h1V7H7v1zM7 7V6H5v1h1zM4 7h1v1H4zm11 0h1v1h-1zm0-1V5h-1v2h1zm3 2h1V7h-2v1zm-2-1h1V5h-1v1zm4 0h1V6h-2v1zm1 0v1h2V7h-1zm2-1v1h2V6h-1zm3 2h1V7h-2v1zm3-1h1v1h-1zm0 0V6h-2v1h1zM13 8h-1v2h1V9zM9 8h1v1H9zM7 9v1h2V9H8zm0 0V8H5v1h1zm-2 1V9H3v1h1zm10-2h-1v2h1V9zm1 0h1v1h-1zm2 1h-1v1h2V9zm1-1v1h2V8h-1zm3 2h1V9h-2v1zm2-1h1V8h-2v1zm1 0v1h2V9h-1zm2-1v1h2V8h-1zm-16 3h1v1h-1zm-1 0h1v-1H9v1zm-3 0v1h2v-1H8zm0 0v-1H5v1h1zm-2 1v-1H3v1h1zm8-2h1v1h-1zm3 0h-1v1h2v-1zm-2 1h1v1h-1zm4 0h-1v1h2v-1zm2-1h-1v1h2v-1zm2 1h-1v1h2v-1zm1-1v1h2v-1h-1zm2 1v1h2v-1h-1zm2-1v1h2v-1h-1zm2 1v1h2v-1h-1zm1-2h-1v1h2V9zm1-1h1v1h-1zm0 2h1v1h-1zM2 8h1v1H2zm0 2h1v1H2zm29 2h1v1h-1zm0 2h1v1h-1zm-2-1v1h2v-1h-1zm-2-1v1h2v-1h-1zm-2 1v1h2v-1h-1zm-1-1h-1v1h2v-1zm-2 1h-1v1h2v-1zm7 2v1h2v-1h-1zm-3 0h-1v1h2v-1zm5 1h1v1h-1zm0 2h1v1h-1zm0 2h1v1h-1zm-2-1v1h2v-1h-1zm0-2v1h2v-1h-1zm-2-1v1h2v-1h-1zm0-2v1h2v-1h-1zm-3 0h-1v1h2v-1zm-4-2h-1v1h2v-1zm8 6h-1v1h2v-1zm-2-1h-1v1h2v-1zm-2-1h-1v1h2v-1zm-2-1h-1v1h2v-1zm-2-1h-1v1h2v-1zm-2-1h-1v1h2v-1zm-2-1h-1v1h2v-1zm-5 1h1v1h-1zm-2-1v1h2v-1h-1zm-2 1v1h2v-1H8zm-2 1v-1H3v1h1zm0-2v1h2v-1H6zm0 2v1h2v-1H6zm-3 0h1v1H2zm1 1v1h2v-1H4zm-1 1h1v1H2zm0-4h1v1H2zM12 2h1v1h-1zm2 0h1v1h-1zm2 0h1v1h-1zm2 0h1v1h-1zm2 0h1v1h-1z" fill="#c260ff"/>
</svg>
