<svg xmlns="http://www.w3.org/2000/svg" viewBox="0 0 34 45">
    <g fill="#ffa207">
        <path d="M33 8h-1V6h-2V4h-4V2h-4V0H12v2H8v2H4v2H2v2H0v37h2V19h1v-1h2v-1h2v-1h2v-1h2v-1h1v-1h1v-1h1v1h1v1h2v1h2v1h2v1h2v1h2v1h2v1h2v1h2v1h1v23h2V8h-1z"/>
        <path d="M12 10h-1V8h-1V7H9V5H8v1H4v2H2v10h1v-1h2v-1h2v-1h2v-1h3v-2h1v-1h-1v-1z"/>
        <path d="M31 8h-1V6h-4V4h-4V2H12v2H9v1h1v2h1v1h1v2h1v1h1v1h1v1h2v1h2v1h2v1h2v1h2v1h2v1h2v1h2v1h1V8h-1z"/>
    </g>
    <path d="M11 5h-1v2h1V5zM8 5h1v1H8V5zm3-1h1v1h-1V4zM9 4h1v1H9V4zm5 0V3h-1v2h1V4zm1 1h1V3h-1v2zm3 0h1v1h-1V5zm-1 0h1V3h-1v2zm2 0h2V4h-1V3h-1v2zm3 1h1V5h-2v1h1zm3-1h1v1h-1V5zm0 0V4h-2v1h2zm-4-2h1v1h-1V3zm-8 4h1v1h-1V7zm-2 0h1v1h-1V7zm1 0h1V5h-1v2zM8 8h1V7H7v1h1zM7 7V6H5v1h2zM4 7h1v1H4V7zm11 0h1v1h-1V7zm0-1V5h-1v2h1V6zm3 2h1V7h-2v1h1zm-2-1h1V5h-1v2zm4 0h1V6h-2v1h1zm1 0v1h2V7h-2zm2-1v1h2V6h-2zm3 2h1V7h-2v1h1zm3-1h1v1h-1V7zm0 0V6h-2v1h2zM13 8h-1v2h1V8zM9 8h1v1H9V8zM7 9v1h2V9H7zm0 0V8H5v1h2zm-2 1V9H3v1h2zm10-2h-1v2h1V8zm1 0h1v1h-1V8zm2 1h-1v1h2V9h-1zm1-1v1h2V8h-2zm3 2h1V9h-2v1h1zm2-1h1V8h-2v1h1zm1 0v1h2V9h-2zm2-1v1h2V8h-2zm-16 3h1v1h-1v-1zm-1 0h1v-1H9v1h1zm-3 0v1h2v-1H7zm0 0v-1H5v1h2zm-2 1v-1H3v1h2zm8-2h1v1h-1v-1zm3 0h-1v1h2v-1h-1zm-2 1h1v1h-1v-1zm4 0h-1v1h2v-1h-1zm2-1h-1v1h2v-1h-1zm2 1h-1v1h2v-1h-1zm1-1v1h2v-1h-2zm2 1v1h2v-1h-2zm2-1v1h2v-1h-2zm2 1v1h2v-1h-2zm1-2h-1v1h2V9h-1zm1-1h1v1h-1V8zm0 2h1v1h-1v-1zM2 8h1v1H2V8zm0 2h1v1H2v-1zm29 2h1v1h-1v-1zm0 2h1v1h-1v-1zm-2-1v1h2v-1h-2zm-2-1v1h2v-1h-2zm-2 1v1h2v-1h-2zm-1-1h-1v1h2v-1h-1zm-2 1h-1v1h2v-1h-1zm7 2v1h2v-1h-2zm-3 0h-1v1h2v-1h-1zm5 1h1v1h-1v-1zm0 2h1v1h-1v-1zm0 2h1v1h-1v-1zm-2-1v1h2v-1h-2zm0-2v1h2v-1h-2zm-2-1v1h2v-1h-2zm0-2v1h2v-1h-2zm-3 0h-1v1h2v-1h-1zm-4-2h-1v1h2v-1h-1zm8 6h-1v1h2v-1h-1zm-2-1h-1v1h2v-1h-1zm-2-1h-1v1h2v-1h-1zm-2-1h-1v1h2v-1h-1zm-2-1h-1v1h2v-1h-1zm-2-1h-1v1h2v-1h-1zm-2-1h-1v1h2v-1h-1zm-5 1h1v1h-1v-1zm-2-1v1h2v-1H9zm-2 1v1h2v-1H7zm-2 1v-1H3v1h2zm0-2v1h2v-1H5zm0 2v1h2v-1H5zm-3 0h1v1H2v-1zm1 1v1h2v-1H3zm-1 1h1v1H2v-1zm0-4h1v1H2v-1zM12 2h1v1h-1V2zm2 0h1v1h-1V2zm2 0h1v1h-1V2zm2 0h1v1h-1V2zm2 0h1v1h-1V2z" fill="#ffc03c"/>
</svg>
