<svg xmlns="http://www.w3.org/2000/svg" viewBox="0 0 64 64">
    <path d="M0 0h64v64H0z" fill="none"/>
    <path d="M30 38v-2h-2v4h-2v2h2v2h2v2h2v-8zm-4-4h2v2h-2zm-2 4h2v2h-2zm0-4h2v-2h-2v-2h-2v8h2v-2z" fill="#dcdcdc"/>
    <path d="M40 30v2h-2v2h2v4h2v-8zm-4 4h2v2h-2zm2 4h2v2h-2zm-2 0v-2h-2v2h-2v8h2v-2h2v-2h2v-2h-2z" fill="#f5f5f5"/>
    <path d="M36 20h2v2h-2zm-2-2v-2h-4v2h2zm0 0h2v2h-2zm4 4h2v2h-2zm2 2h2v2h-2zm2 2v12h2V26zM26 42h2v2h-2zm2 2h2v2h-2zm-4-4h2v2h-2zm-2-2h2v2h-2zm0-4v-8h-2v12h2v-2zm8 12v2h4v-2h-2zm6-4h2v2h-2zm-2 2h2v2h-2zm4-4h2v2h-2zm2-2h2v2h-2zM24 22h2v2h-2zm-2 2h2v2h-2zm4-4h2v2h-2zm2-2h2v2h-2zm-2 22h2v-4h-2v-2h-2v4h2zm14-2v-4h-2v2h-2v4h2v-2z" fill="#339cf0"/>
    <path d="M40 28h2v2h-2zm-2 2h2v2h-2zm-2 2h2v2h-2zm-10 0h2v2h-2zm2 2h2v2h-2zm2 2v2h4v-2h-2zm-6-6h2v2h-2zm-2-2h2v2h-2zm12 6h2v2h-2z" fill="#b9b9b9"/>
    <path d="M40 26v-2h-2v-2h-2v-2h-2v-2h-4v2h-2v2h-2v2h-2v2h-2v2h2v2h2v2h2v2h2v2h4v-2h2v-2h2v-2h2v-2h2v-2h-2zm-12 4v-2h-2v-2h2v-2h2v-2h2v2h-2v2h-2v2h2v2h2v2h-2v-2h-2z" fill="#fff"/>
    <path d="M26 26h2v2h-2zm4 4h2v2h-2zm0-8h2v2h-2zm-2 6h2v2h-2zm0-4h2v2h-2z"/>
</svg>
