<svg version="1.1" id="Layer_1" xmlns="http://www.w3.org/2000/svg" x="0" y="0" viewBox="0 0 46 20" style="enable-background:new 0 0 46 20" xml:space="preserve">
    <style>
        .st0{fill:#fa34f3}.st1{fill:#ac15f9}.st2{fill:#7e18f8}
    </style>
    <path d="M39 0h-2v1h-1v1h-1v1h-1v1h-1v1h-1v1h-2v1h-3v1h-8V7h-3V6h-2V5h-1V4h-1V3h-1V2h-1V1H9V0H6v2h1v1h1v1h1v6H8v1H7v1H6v8h34v-8h-1v-1h-1v-1h-1V4h1V3h1V2h1V0h-1zM5 5H4V4H3V3H1v1H0v2h1v1h1v1h1v1h2V8h1V6H5V5z"/>
    <path class="st0" d="M1 4h1v1H1V4zm1 1h1v1H2V5z"/>
    <path class="st1" d="M3 6h1v1H3V6z"/>
    <path class="st2" d="M4 7h1v1H4V7z"/>
    <path d="M45 4V3h-2v1h-1v1h-1v1h-1v2h1v1h2V8h1V7h1V6h1V4h-1z"/>
    <path class="st0" d="M44 4h1v1h-1V4zm-1 1h1v1h-1V5z"/>
    <path class="st1" d="M42 6h1v1h-1V6z"/>
    <path class="st2" d="M41 7h1v1h-1V7zM22 9.3v.7h-.7v1.4h-.7v1.4h-.7v.7H22v1.4h-.7v1.4h-.7v1.4h.7V17h.7v-.7h.7v-.7h.7v-.7h.7v-.7h.7v-.7h.7v-.7h-2.1v-.7h.7v-.7h.7v-.7h.7V10h.7v-.7H22zm-2.1 8.4v.7h.7v-.7h-.7z"/>
    <path class="st0" d="M22 9.3v.7h-.7v1.4h3.5v-.7h.7V10h.7v-.7H22z"/>
    <path d="M23.4 12.8v-.7h.7v-.7h-3.5v1.4h-.7v.7h5.6v-.7h-2.1z" style="fill:#cf15f9"/>
    <path class="st1" d="M22 13.5v1.4h2.1v-.7h.7v-.7H22z"/>
    <path d="M21.3 14.9v1.4h1.4v-.7h.7v-.7h-2.1z" style="fill:#8f17f9"/>
</svg>
