<svg xmlns="http://www.w3.org/2000/svg" viewBox="0 0 12 26">
    <path d="M9 14h1v-1H8v1h1zm-2-1h1v-2H7v2zm0-4v1h2V9H7zm2-1h1v1H9zm1-1h1v1h-1zm1-4v4h1V3h-1zm-1-1h1v1h-1zM9 1h1v1H9zM5 1h4V0H3v1h2zM1 2h1v1H1zm1-1h1v1H2zM1 5V3H0v4h1V5zm0 2h1v1H1zm1 1h1v1H2zm2 1H3v1h2V9H4zm1 1v1h2v-1H5zm5 6h1v-2h-1v2zm1 2v1h1v-3h-1v2zm-1 1h1v1h-1zm-2 1H6v1h4v-1H8zm-3 1h1v1H5zm-1 2v1h1v-2H4v1zm1 1h1v1H5zm1 1h1v1H6z" fill="#e4c599"/>
    <path d="M7 12h1v1H7zm-1-2h1v1H6zm2-1h1v1H8zm2-2h1v1h-1zm1-2h1v1h-1zm0-2h1v1h-1zM9 1h1v1H9zM7 0h1v1H7zM5 0h1v1H5zM3 0h1v1H3zM1 2h1v1H1zM0 4h1v1H0zm0 2h1v1H0zm2 2h1v1H2zm2 1h1v1H4zm5 4h1v1H9zm1 2h1v1h-1zm1 2h1v1h-1zm-1 2h1v1h-1zm-2 1h1v1H8zm-2 0h1v1H6zm-2 2h1v1H4zm1 2h1v1H5z" fill="#a97955"/>
</svg>
