<svg version="1.1" id="Layer_1" xmlns="http://www.w3.org/2000/svg" x="0" y="0" viewBox="0 0 40 24" style="enable-background:new 0 0 40 24" xml:space="preserve">
    <style>
        .st0{fill:#4b2d00}.st1{fill:#c8c4b7}
    </style>
    <path class="st0" d="M35 0v1h-3v2h-3v2h-3v1h-1v1H15V6h-1V5h-3V3H8V1H5V0H4L2.5 2v16H3v6h4v-1h5v1h5v-1h6v1h5v-1h5v1h4v-6h.5V2L36 0h-1z"/>
    <path class="st1" d="M21 8h1v1h-1V8zm-1 11h-2v1h4v-1h-2zM18 8h1v1h-1V8zm-2 11h1v1h-1zm-2-3h1v1h-1zm2 5h1v1h-1zm0-4h1v1h-1zm-1-5h-3v-2H9V8H6V6H3v3h5v2h3v2h3v2h2v1h1v-2h-2v-2zM5 8H4V7h1v1zm13 9v1h4v-1h-2zM4 20h2v1H4z"/>
    <path class="st1" d="M5 10h2v1H5zm18 11h1v1h-1zM8 12h2v1H8zm-5-2h1v1H3zm11 10h1v1h-1zm0-2h1v1h-1zm-3-4h2v1h-2zm3 8h1v1h-1zm4-1v1h4v-1h-2zm16-1v1h2v-1h-1zm2-10h1v1h-1zm-3 0h2v1h-2z"/>
    <path class="st1" d="M34 6v2h-3v2h-3v2h-3v2h-2v2h1v-1h2v-2h3v-2h3V9h5V6h-3zm2 2h-1V7h1v1z"/>
    <path class="st1" d="M30 12h2v1h-2zM19 9h2v1h-2z"/>
    <path class="st1" d="M35 2h-2v2h-3v2h-3v2h-3v2h-3v2h-2v-2h-3V8h-3V6h-3V4H7V2H4v3h3v2h3v2h3v2h3v2h2v3h4v-3h2v-2h3V9h3V7h3V5h3V2h-1zM6 4H5V3h1v1zm3 2H8V5h1v1zm3 2h-1V7h1v1zm3 2h-1V9h1v1zm3 2h-1v-1h1v1zm3 2v1h-2v-2h2v1zm2-2h-1v-1h1v1zm3-2h-1V9h1v1zm3-2h-1V7h1v1zm3-2h-1V5h1v1zm3-2h-1V3h1v1zM25 18h1v1h-1zm0 2h1v1h-1zm0 2h1v1h-1zm-2-5h1v1h-1zm2-1h1v1h-1zm2-2h2v1h-2zm-4 5h1v1h-1zm11 3h2v1h-2z"/>
    <path class="st1" d="M22 7h1v1h-1zm15-6V0h-1v2h1.5V1zM4 22h2v1H4zM4 0H3v1h-.5v1H4V1zm13 7h1v1h-1z"/>
    <path class="st0" d="M2 2H1v2H0v10h1v2h1v3h1V2H2z"/>
    <path class="st1" d="M2 1h1.5v1H2V1zM1 3v1h1v1H1V4H0v2h3V3H1z"/>
    <path class="st0" d="M38 2h1v2h1v10h-1v2h-1v3h-1V2h1z"/>
    <path class="st1" d="M36.5 1H38v1h-1.5V1zM39 3v1h-1v1h1V4h1v2h-3V3h2z"/>
</svg>
