<svg xmlns="http://www.w3.org/2000/svg" viewBox="0 0 42 22">
    <path d="M4 18v2h34v-2H4zm32-2v-2h-4v-2h-2v-2h2V8h4V6h-2V4h-4V2H18v2h-4v2h-2v2h-2v2H8v4H6v2h30z" fill="#b135ff"/>
    <path d="M19 8h1v1h-1V8zm1-1h1v1h-1V7z" fill="#ffa3ff"/>
    <path d="M20 11h1v1h-1v-1zm-1-1h1v1h-1v-1zm4-1v1h2V9h-2z" fill="#cb5bff"/>
    <path d="M23 8h1v1h-1V8z" fill="#6f16e2"/>
    <path d="M42 22v-2h-2v-2h-2v2H4v-2H2v2H0v2h42zM8 14v-4H6v4h2zm2-4V8H8v2h2zm26-6h-2v2h2V4zm-2-2h-4v2h4V2zm-4-2H18v2h12V0zM14 2v2h4V2h-4zm-2 2v2h-2v2h2V6h2V4h-2zm28 6V8h-2V6h-2v2h-4v2h-2v2h2v2h4v-2h-2v-2h4v2h2v2h2v-4h-2zm-20 8v-2H6v-2H4v4h16zm16-2H23v2h15v-4h-2v2zm-14-6h1v1h-1v-1zm1-5h-1v2h1V5zm0 2h1v1h-1V7zm2 2h1v1h-1V9zm-1-1h1v1h-1V8zm0 2h1v1h-1v-1zm-6-2h1v1h-1V8zm0 2h1v1h-1v-1zm2 4h1v-2h-1v2zm-1-3h1v1h-1v-1z" fill="#3a2b77"/>
    <path d="M21 4h1v1h-1V4zm0 1h-1v2h1V5zm-2 3h1V7h-1v1zm2 6h1v1h-1v-1zm1 0h1v-2h-1v2zm1-3v1h1v-1h-1zm-6-2h1v1h-1V9z" fill="#47289b"/>
    <path d="M22 9h1v1h-1V9zm-2 7h1v1h-1v-1z" fill="#f37aff"/>
    <path d="M20 8h1v1h-1V8zm1 1h1v1h-1V9zm-3 0v1h2V9h-2zm2 8h1v1h-1v-1z" fill="#ffc9ff"/>
    <path d="M20 9h1v1h-1V9zm1-4v4h1V5h-1zm0 11h1v1h-1v-1z" fill="#fff"/>
    <path d="M22 8h1v1h-1V8zm-1 9h1v1h-1v-1z" fill="#5d24bf"/>
    <path d="M20 10h1v1h-1v-1zm2-3h1v1h-1V7zm-1 7h1v-3h-1v3zm1 2h1v1h-1v-1z" fill="#8000ff"/>
    <path d="M21 10h1v1h-1v-1zm1 1h1v1h-1v-1zm1-1h1v1h-1v-1zm-1 7h1v1h-1v-1z" fill="#b135ff"/>
</svg>
